<?xml version="1.0" encoding="UTF-8" standalone="no"?>
<!DOCTYPE svg PUBLIC "-//W3C//DTD SVG 1.1//EN" "http://www.w3.org/Graphics/SVG/1.1/DTD/svg11.dtd">
<svg width="100%" height="100%" viewBox="0 0 1348 774" version="1.1" xmlns="http://www.w3.org/2000/svg" xmlns:xlink="http://www.w3.org/1999/xlink" xml:space="preserve" xmlns:serif="http://www.serif.com/" style="fill-rule:evenodd;clip-rule:evenodd;stroke-linejoin:round;stroke-miterlimit:2;">
    <g transform="matrix(1,0,0,1,-357.684,-639.911)">
        <g transform="matrix(1,0,0,1,622,681)">
            <path d="M0,0C7.77,7.175 7.77,7.175 8.363,11.879C6.961,23.926 -4.374,35.913 -12.965,43.875C-16,46 -16,46 -19.063,46.523C-22.554,45.901 -24.225,44.819 -27,42.625C-28.425,41.533 -28.425,41.533 -29.879,40.418C-31.424,39.221 -31.424,39.221 -33,38C-46.637,27.845 -59.917,20.276 -76.032,14.7C-77.553,14.159 -79.051,13.558 -80.539,12.934C-92.642,8.342 -105.568,7.609 -118.375,7.563C-119.609,7.553 -120.843,7.543 -122.115,7.533C-133.623,7.639 -144.976,9.179 -155.25,14.625C-155.916,14.968 -156.582,15.31 -157.269,15.663C-163.325,18.915 -168.217,23.075 -173,28C-173.838,28.775 -174.676,29.549 -175.539,30.348C-184.578,40.089 -187.598,53.267 -187.375,66.172C-186.307,77.072 -182.777,87.095 -175,95C-174.435,95.637 -173.871,96.274 -173.289,96.93C-162.929,107.459 -147.15,113.82 -133.199,118.027C-130.409,118.876 -127.803,119.856 -125.125,121C-121.033,122.681 -116.873,123.97 -112.625,125.188C-17.161,152.711 -17.161,152.711 6.102,192.5C14.317,207.646 17.536,222.04 17.391,239.131C17.375,241.367 17.391,243.6 17.41,245.836C17.432,259.293 15.872,272.353 10.313,284.75C9.971,285.541 9.629,286.332 9.277,287.146C6.586,293.173 3.362,298.509 -0.531,303.848C-2.188,305.841 -2.188,305.841 -2,308C-0.65,308.532 -0.65,308.532 0.727,309.074C17.635,315.98 33.902,325.357 48,337C48.818,337.67 48.818,337.67 49.652,338.354C53.852,341.81 57.955,345.363 62,349C62.51,349.457 63.021,349.914 63.546,350.384C95.474,379.406 117.101,425.634 120.192,468.667C120.511,475.381 120.53,482.092 120.5,488.813C120.499,489.839 120.498,490.865 120.497,491.923C120.427,514.834 117.63,536.295 110,558C109.555,559.665 109.116,561.331 108.688,563C106.697,569.701 103.236,575.805 100.029,581.985C99.066,583.871 98.144,585.77 97.238,587.684C89.511,603.84 78.265,618.316 66.242,631.547C64.9,632.998 64.9,632.998 64,635L62,635C62.144,634.417 62.289,633.835 62.438,633.234C65.586,619.327 63.883,609.316 57,597C54.535,593.149 51.881,589.547 49,586C48.261,585.076 47.523,584.151 46.762,583.199C46.18,582.473 45.599,581.748 45,581C45.667,579.667 46.333,578.333 47,577C47.455,576.083 47.91,575.167 48.379,574.223C49.534,571.926 50.707,569.646 51.902,567.371C66.641,539.109 71.748,508.691 70,477C69.958,476.192 69.917,475.384 69.874,474.551C67.775,440.467 49.592,403.098 24.125,380.438C22.756,379.284 21.381,378.139 20,377C19.251,376.363 18.502,375.726 17.73,375.07C2.075,362.07 -16.574,352.843 -36,347C-36.79,346.756 -37.58,346.512 -38.395,346.26C-71.866,336.265 -109.562,341.268 -140.156,357.773C-150.707,363.747 -160.269,370.756 -168.961,379.199C-171,381 -171,381 -173,381L-173,383C-174.632,384.7 -176.305,386.362 -178,388C-206.248,418.38 -215.403,461.72 -214,502C-213.678,507.39 -212.925,512.682 -212,518C-211.882,518.695 -211.763,519.39 -211.642,520.105C-206.864,547.189 -193.957,575.617 -173.535,594.473C-172,596 -172,596 -170.211,598.352C-167.632,601.441 -164.73,603.864 -161.563,606.313C-160.946,606.791 -160.33,607.27 -159.695,607.763C-144.755,619.182 -127.009,629.446 -108.281,632.633C-97.287,634.642 -92.316,639.908 -84.902,647.891C-79.506,653.695 -73.402,658.366 -67,663C-66.361,663.468 -65.721,663.936 -65.063,664.417C-56.107,670.927 -47.075,676.388 -37,681C-43.34,687.34 -60.081,685.309 -68.637,685.322C-69.561,685.32 -70.486,685.318 -71.439,685.316C-74.232,685.313 -77.024,685.336 -79.816,685.361C-95.097,685.416 -109.683,683.693 -124.375,679.313C-125.245,679.055 -126.116,678.798 -127.012,678.533C-164.71,667.077 -198.605,645.068 -223,614C-224.079,612.664 -224.079,612.664 -225.18,611.301C-245.285,585.651 -257.717,554.171 -262,522C-262.168,520.849 -262.337,519.698 -262.51,518.512C-263.907,508.43 -264.362,498.547 -264.313,488.375C-264.311,487.591 -264.309,486.808 -264.307,486C-264.257,473.138 -263.549,460.639 -261,448C-260.844,447.194 -260.689,446.387 -260.528,445.556C-253.449,410.097 -235.52,378.199 -211,352C-210.129,351.063 -209.257,350.126 -208.359,349.16C-177.565,316.8 -131.511,296.043 -86.911,294.764C-86.219,294.748 -85.526,294.732 -84.813,294.715C-83.774,294.69 -83.774,294.69 -82.714,294.665C-79.334,294.594 -75.962,294.566 -72.58,294.59C-61.021,294.516 -53.441,291.11 -45.039,283.242C-32.809,269.794 -32.156,254.238 -32.778,236.949C-33.679,224.98 -40.664,215.933 -49.125,207.938C-63.388,195.869 -81.452,188.89 -99,183C-100.235,182.576 -101.47,182.152 -102.742,181.715C-110.544,179.059 -118.384,176.565 -126.273,174.183C-165.425,162.337 -207.399,148.452 -227.986,110.025C-234.837,96.34 -237.382,83.112 -237.313,67.875C-237.307,66.588 -237.301,65.302 -237.295,63.976C-236.969,38.359 -228.158,16.087 -211,-3C-210.337,-3.757 -209.675,-4.513 -208.992,-5.293C-157.294,-60.824 -52.457,-45.999 0,0Z" style="fill:rgb(3,3,3);fill-rule:nonzero;"/>
        </g>
        <g transform="matrix(1,0,0,1,1237.38,1086)">
            <path d="M0,0C1.555,1.317 3.097,2.651 4.625,4L7.207,6.219C32.052,27.972 46.568,60.804 49.402,93.529C51.399,124.658 50.113,154.375 36.625,183L35.594,185.244C30.192,196.835 23.11,206.471 14.625,216L12.473,218.426C-9.772,241.893 -41.875,253.036 -73.586,254.383C-105.057,255.148 -139.63,248.344 -163.375,226L-165.076,224.435C-174.372,215.821 -181.973,206.938 -188.375,196L-189.471,194.157C-203.265,170.687 -207.75,144.858 -207.746,117.926C-207.75,115.032 -207.786,112.14 -207.824,109.246C-208.023,76.459 -198.761,43.392 -177.375,18L-174.977,15.145C-133.418,-32.379 -49.712,-38.992 0,0ZM-34.602,31.914C-57.088,16.395 -88.575,13.591 -113.258,25.84L-115.375,27C-130.446,34.961 -141.121,47.126 -148.541,62.273L-149.375,64C-153.546,72.354 -156.267,81.051 -157.706,90.281L-158.063,92.813C-159.756,104.756 -160.396,117.068 -158.934,129.078L-158.375,133C-155.597,154.25 -150.04,173.577 -133.938,188.723L-131.375,191C-123.521,198.036 -115.459,202.542 -105.711,206.48C-85.58,213.775 -62.782,211.245 -43.375,203C-24.979,193.573 -11.699,175.526 -4.852,156.354L-4.063,154.063C0.207,141.909 1.002,129.275 1.006,116.498L1,114.313C0.991,102.616 0.688,91.287 -2.738,80.009L-3.375,78C-7.682,63.86 -14.04,50.124 -25.078,39.98L-27.375,38C-29.727,35.876 -32.093,33.852 -34.602,31.914Z" style="fill:rgb(3,3,3);"/>
        </g>
        <g transform="matrix(1,0,0,1,1073.19,756.188)">
            <path d="M0,0L3.085,0.594C10.385,2.164 17.018,4.748 23.813,7.813L25.844,8.709C53.962,21.382 75.491,44.327 86.679,73.037C90.284,82.76 93.027,92.591 94.813,102.813L95.223,104.958C99.444,127.348 99.879,151.531 94.813,173.813L94.309,176.135C89.333,198.6 79.91,219.332 64.813,236.813L62.84,239.258C44.77,260.807 16.188,272.46 -11.188,275.813C-13.836,275.913 -16.458,275.976 -19.105,275.98L-21.343,275.991C-22.899,275.996 -24.454,275.998 -26.01,275.998C-28.351,276 -30.692,276.018 -33.033,276.037C-41.618,276.07 -49.763,275.662 -58.188,273.813L-60.538,273.308C-71.932,270.696 -82,266.482 -92.188,260.813L-95.02,259.281C-119.133,245.611 -139.22,219.264 -146.843,192.511C-147.553,189.869 -148.223,187.22 -148.875,184.563L-149.489,182.075C-152.619,168.545 -153.521,155.137 -153.448,141.304C-153.438,138.88 -153.448,136.457 -153.461,134.033C-153.475,119.826 -152.339,105.885 -148.875,92.063L-148.212,89.372C-140.299,58.218 -122.519,31.973 -95.188,14.813C-89.998,11.848 -84.619,9.298 -79.188,6.813L-76.586,5.57C-53.508,-4.66 -24.401,-4.73 0,0ZM17.227,56.535C-0.362,42.776 -25.328,36.483 -47.063,42.625L-50.188,43.813C-68.203,50.309 -84.275,62.633 -92.922,80.051L-94.188,82.813C-105.16,105.888 -108.689,135.368 -103.934,160.492L-103.188,163.813C-100.63,175.721 -97.215,186.51 -91.167,197.127L-90.188,198.813C-82.681,211.808 -70.932,222.087 -57.172,228.031C-40.081,234.76 -18.158,235.782 -1.035,228.645L0.813,227.813C8.814,224.402 15.913,219.492 22.234,213.527C40.109,194.574 48.568,168.179 48.398,142.492C48.354,139.701 48.313,136.913 48.313,134.121C48.337,124.347 48.203,115.023 45.628,105.522L44.813,102.813C39.684,84.299 31.781,69.353 17.227,56.535Z" style="fill:rgb(3,3,3);"/>
        </g>
        <g transform="matrix(1,0,0,1,1181.13,759.709)">
            <path d="M0,0C0.828,-0.013 1.655,-0.026 2.508,-0.039C3.844,-0.042 3.844,-0.042 5.207,-0.045C6.126,-0.052 7.044,-0.059 7.991,-0.066C9.933,-0.076 11.876,-0.08 13.818,-0.08C16.79,-0.084 19.761,-0.121 22.733,-0.159C24.62,-0.165 26.507,-0.169 28.395,-0.17C29.728,-0.192 29.728,-0.192 31.088,-0.214C37.219,-0.169 37.219,-0.169 40.368,2.061C41.833,4.239 42.659,5.905 43.324,8.431C43.546,9.241 43.767,10.051 43.996,10.885C44.221,11.761 44.447,12.638 44.68,13.541C45.2,15.457 45.721,17.374 46.242,19.291C46.509,20.284 46.776,21.278 47.051,22.302C48.09,26.106 49.205,29.884 50.326,33.664C53.424,44.104 56.335,54.591 59.18,65.103C62.675,78.014 66.292,90.885 69.985,103.74C70.405,105.205 70.826,106.67 71.246,108.134C71.457,108.868 71.668,109.601 71.885,110.357C73.529,116.091 75.153,121.83 76.77,127.572C77.013,128.436 77.257,129.3 77.507,130.191C78.682,134.363 79.854,138.536 81.025,142.709C83.335,150.928 85.693,159.131 88.116,167.318C89.884,173.308 91.555,179.322 93.18,185.353C93.444,186.326 93.707,187.298 93.979,188.3C94.61,190.63 95.24,192.96 95.867,195.291C98.133,189.439 100.082,183.555 101.867,177.541C102.133,176.651 102.399,175.762 102.672,174.846C103.986,170.411 105.237,165.98 106.305,161.478C108.401,152.765 111.197,144.241 113.829,135.679C115.713,129.534 117.577,123.382 119.43,117.228C119.621,116.593 119.813,115.957 120.01,115.302C122.798,106.033 125.459,96.738 127.928,87.378C128.956,83.502 130.045,79.685 131.348,75.892C133.13,70.662 134.456,65.334 135.805,59.978C137.572,53.074 139.435,46.293 141.805,39.568C143.333,34.855 144.586,30.075 145.867,25.291C151.895,2.939 151.895,2.939 155.867,0.291C157.84,0.023 157.84,0.023 160.108,0C160.959,-0.013 161.81,-0.026 162.686,-0.039C164.06,-0.042 164.06,-0.042 165.461,-0.045C166.876,-0.055 166.876,-0.055 168.319,-0.066C170.313,-0.076 172.307,-0.08 174.301,-0.08C177.356,-0.084 180.41,-0.121 183.465,-0.159C185.401,-0.165 187.337,-0.169 189.274,-0.17C190.647,-0.192 190.647,-0.192 192.048,-0.214C198.343,-0.168 198.343,-0.168 200.866,2.04C201.858,4.27 202.753,6.425 203.481,8.755C203.899,10.083 203.899,10.083 204.326,11.437C204.608,12.358 204.89,13.279 205.18,14.228C205.45,15.083 205.72,15.939 205.998,16.82C208.006,23.255 209.855,29.732 211.696,36.216C214.508,46.121 217.47,55.975 220.476,65.822C225.189,81.272 229.766,96.742 234.046,112.318C239.041,130.397 244.374,148.361 249.936,166.273C251.396,171.001 252.822,175.738 254.242,180.478C254.6,181.671 254.6,181.671 254.966,182.888C256.299,187.347 257.598,191.813 258.867,196.291C259.11,195.431 259.352,194.571 259.602,193.685C261.612,186.595 263.693,179.542 265.938,172.521C266.651,170.041 267.245,167.621 267.781,165.103C268.955,159.687 270.533,154.411 272.117,149.103C274.43,141.27 276.681,133.427 278.805,125.541C281.119,116.954 283.537,108.4 285.992,99.853C288.349,91.646 290.662,83.437 292.828,75.177C294.458,69.02 296.214,62.896 297.943,56.766C299.725,50.429 301.47,44.084 303.18,37.728C303.578,36.252 303.976,34.776 304.375,33.3C304.959,31.133 305.542,28.965 306.119,26.796C312.377,3.284 312.377,3.284 316.867,0.291C318.802,0.023 318.802,0.023 321.016,0C321.847,-0.013 322.678,-0.026 323.534,-0.039C324.875,-0.042 324.875,-0.042 326.242,-0.045C327.163,-0.052 328.084,-0.059 329.033,-0.066C330.98,-0.076 332.927,-0.08 334.873,-0.08C337.856,-0.084 340.838,-0.121 343.821,-0.159C345.711,-0.165 347.602,-0.169 349.492,-0.17C350.386,-0.185 351.28,-0.199 352.201,-0.214C358.33,-0.169 358.33,-0.169 360.958,2.077C363.983,9.44 359.16,19.992 357.055,27.166C356.711,28.368 356.368,29.571 356.014,30.81C354.441,36.245 352.799,41.61 350.821,46.912C348.669,52.676 347.034,58.541 345.43,64.478C342.987,73.473 340.324,82.381 337.509,91.265C336.481,94.512 335.459,97.761 334.438,101.009C334.239,101.642 334.04,102.275 333.834,102.927C329.826,115.674 325.893,128.433 322.196,141.275C320.697,146.472 319.144,151.64 317.492,156.791C314.986,164.695 312.779,172.679 310.555,180.666C306.846,193.978 302.883,207.194 298.765,220.386C297.644,224.013 296.56,227.651 295.483,231.291C294.531,234.504 293.56,237.71 292.585,240.916C292.093,242.545 291.607,244.177 291.126,245.81C290.393,248.289 289.633,250.759 288.867,253.228C288.655,253.968 288.442,254.708 288.222,255.47C288.002,256.162 287.782,256.855 287.555,257.568C287.373,258.168 287.191,258.769 287.004,259.388C285.177,262.446 282.953,264.58 279.867,266.291C276.732,267.002 273.694,267.016 270.489,266.99C269.154,267 269.154,267 267.792,267.011C265.919,267.019 264.046,267.014 262.172,266.997C259.309,266.978 256.451,267.018 253.588,267.062C251.763,267.062 249.938,267.059 248.114,267.052C247.261,267.068 246.409,267.083 245.531,267.099C241.004,267.01 239.402,266.775 235.928,263.628C233.953,260.429 232.712,257.729 231.656,254.134C231.302,252.958 230.948,251.781 230.583,250.569C230.223,249.322 229.863,248.075 229.492,246.791C229.104,245.486 228.715,244.183 228.323,242.879C227.537,240.257 226.756,237.633 225.98,235.007C224.43,229.828 222.779,224.684 221.117,219.541C216.554,205.273 212.441,190.896 208.453,176.457C206.391,169.025 204.156,161.656 201.867,154.291C192.035,122.316 192.035,122.316 188.069,107.303C185.781,98.738 183.122,90.291 180.406,81.853C180.076,80.81 179.746,79.767 179.406,78.693C179.11,77.77 178.813,76.847 178.507,75.896C177.859,73.257 177.747,70.996 177.867,68.291L175.867,68.291C175.724,69.118 175.724,69.118 175.577,69.962C174.123,77.784 171.931,85.354 169.68,92.978C169.278,94.351 168.876,95.725 168.474,97.098C165.77,106.325 163.006,115.534 160.164,124.719C157.606,133.012 155.371,141.383 153.149,149.771C152.856,150.873 152.563,151.974 152.262,153.109C151.663,155.366 151.066,157.624 150.473,159.882C149.068,165.151 147.579,170.269 145.582,175.343C144.152,179.241 143.173,183.278 142.117,187.291C137.636,203.975 132.911,220.548 127.286,236.887C125.043,243.492 123.378,250.11 121.985,256.943C120.682,260.846 119.162,263.8 115.867,266.291C112.612,267.151 109.465,267.086 106.114,267.017C105.176,267.018 104.238,267.019 103.271,267.02C101.294,267.015 99.316,266.996 97.338,266.963C94.311,266.916 91.287,266.922 88.26,266.935C86.336,266.924 84.412,266.91 82.489,266.892C81.584,266.894 80.68,266.896 79.748,266.898C73.525,266.757 73.525,266.757 70.393,264.534C65.515,257.362 63.652,248.441 61.43,240.166C60.816,237.928 60.2,235.691 59.582,233.455C59.287,232.385 58.992,231.315 58.687,230.213C57.134,224.676 55.39,219.204 53.641,213.726C51.903,208.254 50.199,202.772 48.492,197.291C48.104,196.042 47.715,194.793 47.314,193.506C44.523,184.5 41.858,175.464 39.251,166.404C37.737,161.173 36.139,156.002 34.367,150.853C32.296,144.784 30.558,138.663 28.867,132.478C25.648,120.728 22.061,109.106 18.43,97.478C14.355,84.423 10.389,71.359 6.695,58.19C3.617,47.271 0.244,36.45 -3.152,25.626C-3.656,24.013 -3.656,24.013 -4.17,22.368C-4.795,20.369 -5.426,18.372 -6.064,16.377C-6.341,15.495 -6.617,14.613 -6.902,13.705C-7.144,12.944 -7.386,12.183 -7.636,11.398C-8.439,7.988 -8.112,5.649 -7.133,2.291C-4.081,0.256 -3.439,0.036 0,0Z" style="fill:rgb(3,3,3);fill-rule:nonzero;"/>
        </g>
        <g transform="matrix(1,0,0,1,1664.81,1088.25)">
            <path d="M0,0C23.477,20.861 37.705,49.419 40.188,80.75C40.49,86.737 40.518,92.724 40.503,98.717C40.5,101.407 40.524,104.096 40.549,106.785C40.551,108.516 40.552,110.246 40.551,111.977L40.579,114.382C40.532,119.996 39.293,123.71 36.05,128.392C33.168,130.493 30.158,130.152 26.727,130.111L24.406,130.119C21.831,130.123 19.256,130.107 16.681,130.091C14.838,130.09 12.995,130.09 11.153,130.092C6.142,130.093 1.133,130.075 -3.877,130.054C-9.11,130.035 -14.344,130.034 -19.577,130.03C-29.489,130.021 -39.402,129.996 -49.315,129.966C-60.599,129.933 -71.883,129.916 -83.167,129.901C-106.382,129.87 -129.597,129.817 -152.813,129.75C-152.679,131.8 -152.538,133.849 -152.395,135.898L-152.159,139.357C-151.647,144.369 -150.365,148.973 -148.813,153.75L-148.008,156.387C-141.953,174.739 -130.071,189.775 -112.813,198.75C-99.718,205.262 -86.397,207.304 -71.875,207.188L-67.887,207.167C-58.578,207.013 -50.534,206.192 -41.813,202.75L-38.648,201.582C-35.644,200.407 -32.732,199.123 -29.813,197.75L-27.082,196.484C-18.258,192.053 -10.742,185.633 -3.75,178.707C-0.791,175.823 1.543,174.312 5.625,173.938C11.359,174.385 14.53,177.566 18.188,181.75C21.009,185.319 23.612,189.001 26.188,192.75L27.578,194.508C30.049,197.692 30.933,200.635 30.688,204.684C28.246,214.774 15.994,222.793 7.813,227.938C-29.724,250.082 -72.179,257.675 -114.847,247.533C-121.873,245.678 -128.348,243.04 -134.813,239.75L-136.892,238.718C-146.49,233.892 -154.229,228.423 -161.813,220.75C-165.198,217.334 -165.198,217.334 -168.699,214.039C-186.334,197.743 -195.069,172.728 -199.813,149.75L-200.3,147.508C-207.442,113.512 -203.839,73.744 -187.813,42.75L-186.523,39.863C-182.265,30.538 -176.155,22.73 -169.813,14.75L-167.867,12.27C-149.502,-9.955 -119.959,-23.31 -91.676,-26.035C-58.49,-28.53 -25.833,-22.119 0,0ZM-78.688,17.25C-89.527,17.189 -99.094,18.657 -108.91,23.399L-110.813,24.375C-129.097,33.734 -141.121,48.986 -148.31,68.087L-149.125,70.313C-151.468,76.601 -152.12,81.829 -152.813,88.75L-6.813,88.75C-6.813,77.431 -9.628,63.972 -15.316,54.066L-16.813,51.75C-20.25,46.222 -23.765,40.969 -28.195,36.168C-41.561,23.555 -56.942,17.635 -75.101,17.267L-78.688,17.25Z" style="fill:rgb(3,3,3);"/>
        </g>
        <g transform="matrix(1,0,0,1,678.176,640.369)">
            <path d="M0,0C1.181,-0.019 1.181,-0.019 2.386,-0.038C3.223,-0.025 4.06,-0.011 4.922,0.002C6.229,-0.001 6.229,-0.001 7.562,-0.005C9.398,-0.004 11.235,0.009 13.071,0.034C15.881,0.069 18.688,0.055 21.498,0.035C23.285,0.042 25.072,0.052 26.859,0.065C27.698,0.06 28.536,0.055 29.4,0.05C30.185,0.066 30.969,0.081 31.777,0.098C32.807,0.107 32.807,0.107 33.858,0.116C36.776,0.88 37.934,2.31 39.824,4.631C40.316,7.388 40.316,7.388 40.305,10.617C40.31,11.842 40.316,13.068 40.322,14.331C40.307,15.686 40.293,17.041 40.278,18.396C40.277,19.825 40.278,21.254 40.28,22.683C40.281,26.561 40.257,30.439 40.23,34.316C40.205,38.37 40.202,42.423 40.197,46.476C40.185,54.151 40.152,61.825 40.112,69.5C40.067,78.237 40.045,86.975 40.025,95.712C39.983,113.685 39.913,131.658 39.824,149.631C42.334,147.131 44.828,144.627 47.261,142.053C61.268,127.449 77.799,118.061 97.824,114.631C98.873,114.449 99.923,114.268 101.004,114.08C128.5,110.847 157.611,115.283 179.824,132.631C191.347,141.952 199.992,152.863 205.824,166.631C206.181,167.46 206.538,168.289 206.906,169.143C215.178,190.86 213.302,215.782 213.293,238.608C213.293,242.52 213.301,246.432 213.31,250.345C213.329,259.567 213.332,268.789 213.325,278.011C213.318,287.508 213.341,297.004 213.378,306.501C213.409,314.692 213.42,322.883 213.416,331.073C213.414,335.951 213.42,340.827 213.444,345.704C213.467,350.275 213.465,354.845 213.444,359.415C213.441,361.09 213.446,362.765 213.46,364.439C213.479,366.727 213.466,369.012 213.445,371.3C213.446,372.579 213.447,373.857 213.448,375.174C212.615,379.79 211.195,381.402 207.824,384.631C204.763,385.233 202.504,385.454 199.453,385.393C198.653,385.396 197.853,385.4 197.029,385.403C195.342,385.403 193.655,385.388 191.968,385.358C189.397,385.319 186.831,385.338 184.26,385.364C182.616,385.356 180.972,385.345 179.328,385.33C178.565,385.337 177.803,385.344 177.017,385.351C175.93,385.323 175.93,385.323 174.822,385.294C174.193,385.287 173.564,385.28 172.917,385.273C169.245,384.147 166.843,382.884 164.824,379.631C163.909,374.672 164.038,369.73 164.099,364.709C164.095,363.166 164.089,361.623 164.081,360.08C164.069,356.758 164.075,353.436 164.096,350.113C164.129,344.839 164.12,339.566 164.105,334.292C164.086,325.927 164.095,317.562 164.116,309.197C164.154,294.281 164.158,279.365 164.131,264.449C164.123,259.228 164.132,254.007 164.153,248.786C165.442,209.088 165.442,209.088 148.824,174.631C134.413,161.564 118.18,157.55 99.249,158.436C82.694,159.769 67.721,167.085 56.824,179.631C39.646,202.882 40.221,233.365 40.282,260.919C40.287,265.021 40.267,269.123 40.249,273.225C40.219,280.958 40.207,288.69 40.204,296.423C40.197,310.317 40.168,324.211 40.119,338.104C40.102,342.971 40.097,347.838 40.1,352.705C40.101,355.719 40.093,358.732 40.083,361.746C40.081,363.142 40.081,364.538 40.086,365.935C40.092,367.839 40.084,369.744 40.076,371.648C40.075,373.246 40.075,373.246 40.075,374.876C39.821,377.666 39.331,379.291 37.824,381.631C34.828,383.697 32.412,384.098 28.824,383.631C26.422,381.612 26.422,381.612 23.886,378.819C17.758,372.321 10.948,366.989 3.824,361.631C2.945,360.968 2.945,360.968 2.048,360.291C-0.61,358.289 -3.274,356.294 -5.946,354.311C-8.176,352.631 -8.176,352.631 -9.176,351.631C-9.278,349.796 -9.309,347.957 -9.313,346.118C-9.318,344.914 -9.323,343.71 -9.328,342.469C-9.329,341.116 -9.33,339.762 -9.33,338.409C-9.334,336.985 -9.338,335.56 -9.343,334.136C-9.355,330.203 -9.361,326.27 -9.365,322.336C-9.371,318.102 -9.383,313.867 -9.394,309.633C-9.418,299.396 -9.433,289.16 -9.446,278.924C-9.449,276.034 -9.453,273.145 -9.457,270.256C-9.483,252.327 -9.505,234.398 -9.517,216.47C-9.52,212.314 -9.523,208.159 -9.526,204.003C-9.527,202.97 -9.528,201.937 -9.528,200.873C-9.541,184.135 -9.574,167.396 -9.616,150.658C-9.658,133.487 -9.682,116.317 -9.687,99.146C-9.691,89.5 -9.702,79.853 -9.735,70.207C-9.763,61.993 -9.774,53.779 -9.763,45.564C-9.758,41.371 -9.761,37.179 -9.786,32.986C-9.808,29.149 -9.807,25.312 -9.788,21.475C-9.785,20.086 -9.791,18.696 -9.806,17.306C-9.924,5.614 -9.924,5.614 -6.769,2.312C-4.211,0.654 -2.998,0.004 0,0Z" style="fill:rgb(3,4,4);fill-rule:nonzero;"/>
        </g>
        <g transform="matrix(1,0,0,1,789.398,1067.8)">
            <path d="M0,0C0.713,-0.006 1.425,-0.011 2.159,-0.017C3.664,-0.027 5.168,-0.033 6.673,-0.037C8.962,-0.047 11.25,-0.078 13.539,-0.109C15.005,-0.116 16.471,-0.121 17.938,-0.125C18.955,-0.144 18.955,-0.144 19.993,-0.162C24.589,-0.141 27.716,0.755 31.602,3.203C34.027,6.841 33.852,8.526 33.853,12.859C33.856,13.539 33.859,14.219 33.862,14.919C33.87,17.203 33.863,19.487 33.857,21.772C33.86,23.408 33.863,25.044 33.868,26.68C33.876,30.21 33.878,33.739 33.876,37.268C33.873,42.865 33.887,48.461 33.905,54.057C33.952,69.973 33.976,85.889 33.982,101.805C33.986,110.592 34.004,119.378 34.038,128.165C34.058,133.711 34.06,139.256 34.049,144.801C34.047,148.281 34.061,151.761 34.079,155.24C34.085,156.834 34.083,158.428 34.074,160.021C33.983,177.757 36.822,195.599 47.602,210.203C48.158,211.028 48.715,211.853 49.289,212.703C57.391,221.462 70.107,226.997 81.977,227.504C83.518,227.523 85.06,227.527 86.602,227.516C87.427,227.51 88.252,227.504 89.102,227.499C106.269,227.166 122.592,222.904 135.602,211.203C136.191,210.74 136.78,210.278 137.387,209.801C152.096,197.169 156.98,173.527 158.602,155.203C159.062,145.333 158.984,135.446 158.951,125.568C158.935,120.625 158.943,115.682 158.956,110.739C158.986,97.592 158.985,84.444 158.966,71.296C158.953,62.616 158.955,53.936 158.984,45.256C158.999,40.344 158.992,35.432 158.967,30.52C158.957,27.474 158.968,24.428 158.985,21.381C158.988,19.971 158.983,18.56 158.969,17.15C158.854,5.168 158.854,5.168 161.886,1.865C164.457,0.292 165.712,-0.424 168.67,-0.428C169.434,-0.441 170.199,-0.453 170.986,-0.466C171.798,-0.453 172.609,-0.439 173.445,-0.426C174.292,-0.428 175.139,-0.431 176.011,-0.433C177.796,-0.432 179.582,-0.419 181.367,-0.394C184.093,-0.359 186.816,-0.373 189.543,-0.393C191.281,-0.386 193.02,-0.376 194.758,-0.363C195.569,-0.368 196.381,-0.373 197.217,-0.378C202.254,-0.274 204.953,0.41 208.602,4.203C209.753,6.506 209.73,7.806 209.736,10.368C209.74,11.246 209.745,12.124 209.749,13.029C209.749,14 209.749,14.97 209.749,15.97C209.752,16.997 209.756,18.023 209.76,19.081C209.771,22.543 209.775,26.005 209.779,29.468C209.785,31.941 209.791,34.414 209.798,36.888C209.818,44.326 209.828,51.765 209.837,59.204C209.842,62.705 209.847,66.207 209.852,69.709C209.869,81.348 209.884,92.987 209.891,104.627C209.893,107.648 209.895,110.669 209.897,113.69C209.897,114.441 209.898,115.192 209.898,115.966C209.906,128.132 209.932,140.298 209.964,152.463C209.997,164.95 210.015,177.437 210.019,189.924C210.021,196.936 210.03,203.948 210.055,210.961C210.079,217.556 210.083,224.152 210.072,230.748C210.072,233.171 210.078,235.593 210.092,238.016C210.109,241.321 210.103,244.624 210.089,247.928C210.1,248.89 210.111,249.852 210.123,250.842C210.067,256.607 209.375,259.777 205.602,264.203C200.797,267.819 193.667,266.575 187.903,266.574C185.675,266.578 183.448,266.614 181.221,266.652C179.797,266.658 178.373,266.662 176.949,266.664C175.66,266.672 174.371,266.68 173.043,266.689C168.982,266.116 167.405,265.16 164.602,262.203C162.807,258.776 162.219,255.501 161.75,251.684C161.557,250.151 161.557,250.151 161.359,248.588C161.233,247.533 161.107,246.478 160.977,245.391C160.775,243.779 160.775,243.779 160.57,242.135C160.241,239.492 159.919,236.848 159.602,234.203C158.938,234.939 158.274,235.675 157.59,236.434C156.707,237.409 155.824,238.385 154.914,239.391C154.044,240.354 153.174,241.316 152.277,242.309C135.884,260.042 116.619,270.819 92.273,272.422C64.548,273.395 34.864,270.022 13.602,250.203C10.396,246.683 7.47,243.001 4.602,239.203C3.639,237.944 3.639,237.944 2.656,236.66C-17.377,209.386 -16.028,173.148 -15.936,140.898C-15.925,136.166 -15.935,131.433 -15.941,126.7C-15.948,118.785 -15.939,110.87 -15.92,102.955C-15.898,93.814 -15.905,84.673 -15.927,75.532C-15.945,67.638 -15.948,59.744 -15.937,51.849C-15.931,47.153 -15.93,42.457 -15.944,37.76C-15.955,33.365 -15.947,28.971 -15.924,24.576C-15.919,22.965 -15.92,21.355 -15.929,19.744C-15.94,17.547 -15.926,15.35 -15.906,13.152C-15.905,11.924 -15.903,10.695 -15.902,9.429C-15.304,5.599 -14.089,3.94 -11.398,1.203C-7.881,-0.37 -3.807,0.024 0,0Z" style="fill:rgb(3,4,4);fill-rule:nonzero;"/>
        </g>
        <g transform="matrix(1,0,0,1,1341.95,991.369)">
            <path d="M0,0C0.764,-0.013 1.529,-0.025 2.316,-0.038C3.541,-0.018 3.541,-0.018 4.791,0.002C6.063,-0.001 6.063,-0.001 7.361,-0.005C9.153,-0.004 10.944,0.009 12.735,0.034C15.47,0.068 18.202,0.055 20.938,0.035C22.681,0.042 24.423,0.052 26.166,0.065C26.981,0.06 27.796,0.055 28.635,0.05C29.403,0.066 30.17,0.081 30.961,0.098C31.965,0.107 31.965,0.107 32.99,0.116C36.181,0.915 37.793,2.252 40.045,4.631C40.646,7.846 40.646,7.846 40.613,11.695C40.614,12.397 40.614,13.1 40.615,13.824C40.612,16.141 40.573,18.456 40.533,20.772C40.524,22.38 40.517,23.989 40.512,25.597C40.493,29.826 40.444,34.054 40.388,38.282C40.337,42.599 40.314,46.916 40.289,51.233C40.236,59.699 40.15,68.165 40.045,76.631C40.796,76.616 41.547,76.6 42.321,76.584C49.412,76.443 56.502,76.337 63.595,76.268C67.24,76.232 70.885,76.183 74.531,76.103C78.051,76.027 81.571,75.985 85.093,75.967C87.084,75.948 89.075,75.893 91.065,75.838C99.757,75.834 99.757,75.834 103.213,77.972C107.005,81.941 107.805,85.657 107.807,91.139C107.812,92.172 107.812,92.172 107.817,93.225C107.817,94.669 107.802,96.113 107.772,97.556C107.733,99.759 107.752,101.956 107.778,104.158C107.77,105.569 107.759,106.979 107.744,108.389C107.732,109.659 107.72,110.929 107.708,112.237C107.067,115.521 106.438,117.312 103.987,119.604C99.299,122.083 93.365,121.221 88.213,121.119C86.853,121.11 85.492,121.103 84.132,121.098C80.562,121.079 76.994,121.03 73.425,120.974C69.778,120.923 66.131,120.9 62.485,120.875C55.338,120.822 48.192,120.736 41.045,120.631C41.059,140.582 41.101,160.532 41.177,180.482C41.212,189.747 41.237,199.012 41.241,208.276C41.244,216.358 41.264,224.439 41.306,232.52C41.327,236.793 41.34,241.066 41.331,245.34C41.324,249.374 41.34,253.408 41.373,257.442C41.381,258.911 41.381,260.381 41.372,261.85C41.298,274.526 43.358,286.202 51.045,296.631C59.07,302.932 68.03,303.9 77.839,302.965C82.937,302.194 87.735,300.5 92.557,298.725C96.012,297.641 98.459,297.239 102.045,297.631C105.534,299.482 107.785,301.85 109.045,305.631C109.36,310.23 109.369,314.835 109.42,319.444C109.476,321.351 109.476,321.351 109.533,323.297C109.632,333.785 109.632,333.785 106.858,337.35C91.345,349.933 66.834,349.075 48.045,347.631C31.373,345.202 16.932,335.089 6.295,322.381C-5.943,305.738 -8.118,285.93 -8.068,265.944C-8.068,264.356 -8.068,262.769 -8.069,261.182C-8.069,256.891 -8.063,252.6 -8.056,248.309C-8.05,243.818 -8.049,239.327 -8.048,234.836C-8.045,226.34 -8.037,217.844 -8.027,209.348C-8.016,199.672 -8.01,189.996 -8.005,180.321C-7.995,160.424 -7.977,140.528 -7.955,120.631C-9.514,120.67 -9.514,120.67 -11.104,120.71C-14.966,120.801 -18.827,120.858 -22.689,120.906C-24.359,120.931 -26.029,120.965 -27.699,121.008C-30.103,121.069 -32.504,121.097 -34.908,121.119C-35.653,121.145 -36.398,121.171 -37.165,121.198C-40.965,121.2 -42.603,120.96 -45.424,118.327C-47.411,114.828 -47.549,111.768 -47.521,107.846C-47.527,107.108 -47.534,106.37 -47.54,105.609C-47.547,104.055 -47.544,102.501 -47.531,100.947C-47.517,98.572 -47.552,96.2 -47.59,93.824C-47.591,92.311 -47.589,90.797 -47.584,89.283C-47.604,88.222 -47.604,88.222 -47.624,87.14C-47.553,83.374 -47.246,81.922 -44.541,79.215C-40.393,76.674 -37.534,76.498 -32.76,76.533C-32.052,76.535 -31.345,76.536 -30.616,76.538C-28.354,76.543 -26.092,76.556 -23.83,76.569C-22.297,76.574 -20.765,76.578 -19.232,76.582C-15.473,76.593 -11.714,76.611 -7.955,76.631C-7.964,75.753 -7.973,74.874 -7.982,73.969C-8.062,65.686 -8.123,57.402 -8.162,49.118C-8.183,44.86 -8.211,40.601 -8.257,36.343C-8.3,32.232 -8.324,28.121 -8.334,24.01C-8.342,22.443 -8.356,20.876 -8.378,19.309C-8.407,17.111 -8.411,14.914 -8.409,12.716C-8.418,11.466 -8.427,10.216 -8.436,8.928C-7.702,3.901 -5.444,0.008 0,0Z" style="fill:rgb(3,3,3);fill-rule:nonzero;"/>
        </g>
        <g transform="matrix(1,0,0,1,485,1063)">
            <path d="M0,0C0.245,0.576 0.491,1.153 0.743,1.746C11.202,26.24 21.987,51.149 36.188,73.75C38.6,77.852 40.062,81.098 39.609,85.91C37.535,93.026 32.107,96.947 26.059,100.68C23.711,102.186 21.846,103.913 20,106C26.781,127.764 41.441,147.944 55,166C55.4,166.541 55.8,167.082 56.212,167.64C68.143,185.475 68.143,185.475 84.832,196.291C91.741,196.652 95.824,194.305 101.438,190.5C103.017,189.465 104.599,188.434 106.184,187.406C107.213,186.715 107.213,186.715 108.263,186.01C110,185 110,185 112,185C112.301,185.552 112.601,186.105 112.911,186.674C119.425,198.559 126.305,209.656 134.689,220.304C136.545,222.706 138.266,225.197 140,227.688C148.59,239.545 159.421,252.075 173,258C171.497,262.275 168.365,264.135 164.688,266.438C163.752,267.028 163.752,267.028 162.797,267.631C156.823,271.292 150.676,273.872 144,276C143.072,276.318 142.144,276.637 141.188,276.965C124.139,282.103 106.152,279.498 90.563,271.5C72.168,261.614 56.51,246.786 43,231C42.071,229.944 41.142,228.89 40.211,227.836C33.722,220.437 27.701,212.776 21.863,204.855C20.106,202.472 18.323,200.118 16.48,197.801C-7.528,167.509 -27.933,131.101 -39,94C-39.32,92.973 -39.639,91.945 -39.969,90.887C-45.697,70.015 -42.542,45.857 -32.367,26.969C-25.901,16.262 -13.958,0 0,0Z" style="fill:rgb(24,110,67);fill-rule:nonzero;"/>
        </g>
        <g transform="matrix(1,0,0,1,654.203,1343.05)">
            <path d="M0,0C4.027,1.367 7.745,3.243 11.547,5.137C19.815,9.162 28.153,12.405 36.874,15.292C38.895,15.983 40.89,16.726 42.887,17.484C50.185,20.248 57.607,22.635 65.297,24.012C70.101,24.893 73.319,26.471 76.797,29.949C77.691,37.697 75.151,44.635 72.797,51.949C72.492,52.908 72.492,52.908 72.181,53.887C68.038,66.779 68.038,66.779 63.797,69.949C55.249,71.63 46.048,69.163 37.797,66.949C36.561,66.619 36.561,66.619 35.3,66.281C3.442,57.564 -25.814,42.714 -52.203,22.949C-49.509,20.255 -46.618,20.032 -43.016,19.262C-34.458,17.271 -26.974,13.983 -19.203,9.949C-18.592,9.635 -17.981,9.32 -17.352,8.997C-10.427,5.59 -10.427,5.59 -4.152,1.184C-2.203,-0.051 -2.203,-0.051 0,0Z" style="fill:rgb(4,4,4);fill-rule:nonzero;"/>
        </g>
        <g transform="matrix(1,0,0,1,403,933)">
            <path d="M0,0C4.529,2.648 8.239,5.945 12,9.563C25.673,22.405 40.41,32.223 57,41L57,43C55.886,43.45 54.773,43.9 53.625,44.363C40.892,49.667 30.03,56.382 19.254,64.961C18.662,65.43 18.07,65.898 17.46,66.381C15.85,67.67 14.26,68.982 12.672,70.297C10,72 10,72 8.039,72.066C4.958,70.455 2.314,68.367 -0.375,66.188C-0.986,65.698 -1.598,65.209 -2.228,64.705C-8.952,59.29 -15.56,53.751 -22,48C-22.555,47.509 -23.11,47.019 -23.681,46.513C-25.268,45.093 -26.825,43.647 -28.375,42.188C-29.717,40.94 -29.717,40.94 -31.086,39.668C-33,37 -33,37 -33.605,33.637C-32.818,28.906 -30.886,26.309 -27.938,22.625C-27.435,21.972 -26.932,21.318 -26.413,20.645C-25.411,19.346 -24.401,18.052 -23.385,16.764C-22.206,15.262 -21.06,13.735 -19.922,12.203C-14.486,4.906 -9.714,-0.809 0,0Z" style="fill:rgb(4,4,4);fill-rule:nonzero;"/>
        </g>
        <g transform="matrix(1,0,0,1,1569.32,942.941)">
            <path d="M0,0C4.099,2.491 7.449,5.529 10.676,9.059C10.882,8.502 11.088,7.945 11.301,7.371C13.197,4.183 15.505,1.934 18.676,0.059C21.539,-0.639 24.241,-0.644 27.176,-0.566C27.909,-0.586 28.643,-0.605 29.398,-0.625C33.919,-0.585 36.994,0.135 40.388,3.42C45.533,9.964 46.249,16.905 46.102,24.965C46.097,26.474 46.097,26.474 46.092,28.013C46.081,30.121 46.061,32.228 46.032,34.336C45.988,37.577 45.971,40.817 45.959,44.059C45.946,46.111 45.931,48.163 45.914,50.215C45.907,51.188 45.899,52.16 45.892,53.163C45.879,54.055 45.866,54.946 45.853,55.865C45.843,56.653 45.833,57.441 45.823,58.253C45.676,60.059 45.676,60.059 44.676,61.059C42.656,61.131 40.634,61.142 38.613,61.121C37.509,61.112 36.404,61.103 35.266,61.094C34.411,61.082 33.556,61.071 32.676,61.059C32.646,59.144 32.646,59.144 32.616,57.191C32.54,52.447 32.451,47.705 32.358,42.962C32.32,40.91 32.285,38.859 32.254,36.807C32.208,33.856 32.15,30.905 32.09,27.953C32.078,27.038 32.067,26.124 32.055,25.181C31.965,18.864 31.965,18.864 29.676,13.059C26.056,11.852 23.483,11.736 19.676,12.059C15.65,14.186 13.367,15.844 11.676,20.059C11.354,22.114 11.354,22.114 11.357,24.276C11.337,25.097 11.317,25.917 11.297,26.763C11.279,28.077 11.279,28.077 11.262,29.418C11.242,30.322 11.223,31.227 11.203,32.159C11.143,35.042 11.097,37.925 11.051,40.809C11.013,42.766 10.974,44.723 10.934,46.68C10.838,51.473 10.754,56.265 10.676,61.059L-2.324,61.059C-2.338,59.045 -2.338,59.045 -2.353,56.991C-2.392,52.011 -2.458,47.032 -2.532,42.052C-2.56,39.897 -2.581,37.742 -2.595,35.586C-2.617,32.488 -2.663,29.391 -2.715,26.293C-2.716,25.329 -2.717,24.366 -2.719,23.373C-2.777,18.047 -2.777,18.047 -5.226,13.454C-8.311,11.402 -10.517,11.447 -14.133,11.59C-17.593,12.33 -19.208,14.347 -21.324,17.059C-21.654,17.389 -21.984,17.719 -22.324,18.059C-22.446,19.408 -22.502,20.764 -22.53,22.119C-22.549,22.98 -22.569,23.841 -22.59,24.728C-22.615,26.131 -22.615,26.131 -22.641,27.563C-22.661,28.516 -22.682,29.469 -22.704,30.45C-22.769,33.507 -22.828,36.564 -22.887,39.621C-22.93,41.688 -22.974,43.755 -23.018,45.822C-23.125,50.901 -23.226,55.98 -23.324,61.059L-36.324,61.059L-36.324,0.059L-25.324,0.059L-25.324,8.059L-23.324,8.059C-23.097,7.481 -22.87,6.904 -22.637,6.309C-18.101,-1.467 -8.015,-3.247 0,0Z" style="fill:rgb(10,10,10);fill-rule:nonzero;"/>
        </g>
        <g transform="matrix(1,0,0,1,494,1060)">
            <path d="M0,0C11.593,0.242 19.701,4.032 28,12C29.983,14.213 31.761,16.53 33.5,18.938C33.97,19.586 34.44,20.234 34.924,20.902C46.504,37.366 52.491,56.847 51,77C49.533,83.548 47.186,89.621 42,94C38.988,94.75 36.098,94.986 33,95C34.875,90.25 34.875,90.25 36,88C36.688,82.593 36.046,79.616 33.328,74.883C32.782,73.915 32.236,72.947 31.674,71.95C30.845,70.49 30.845,70.49 30,69C19.921,50.401 10.592,31.434 2.813,11.75C2.375,10.651 2.375,10.651 1.928,9.53C0.613,6.097 0,3.731 0,0Z" style="fill:rgb(29,111,69);fill-rule:nonzero;"/>
        </g>
        <g transform="matrix(1,0,0,1,1620,943)">
            <path d="M0,0L14,0C17.374,6.748 17.374,6.748 18.41,9.938C18.644,10.649 18.878,11.359 19.118,12.092C19.359,12.839 19.6,13.586 19.848,14.355C20.105,15.139 20.362,15.922 20.628,16.73C21.444,19.214 22.254,21.701 23.063,24.188C24.132,27.474 25.207,30.759 26.285,34.043C26.528,34.796 26.771,35.549 27.021,36.325C28.082,39.556 29.101,42.152 31,45C31.206,44.383 41.208,14.377 46,0L60,0C57.746,7.771 55.171,15.385 52.438,23C52.003,24.212 51.568,25.423 51.12,26.672C48.07,35.142 44.949,43.585 41.75,52C41.363,53.03 40.975,54.06 40.576,55.121C31.75,78.094 31.75,78.094 23.805,82.109C20.319,83.216 17.338,83.193 13.688,83.125C12.433,83.107 11.179,83.089 9.887,83.07C8.934,83.047 7.981,83.024 7,83L7,73C8.568,72.753 10.135,72.505 11.75,72.25C14.915,71.601 16.842,71.104 19.563,69.313C21.586,66.057 21.841,63.857 22,60C21.018,56.519 19.547,53.293 18.063,50C14.638,42.046 11.493,34.069 8.688,25.875C8.357,24.91 8.026,23.945 7.686,22.95C6.784,20.302 5.89,17.652 5,15C4.764,14.3 4.528,13.599 4.284,12.878C3.176,9.59 2.081,6.297 1,3C0.67,2.01 0.34,1.02 0,0Z" style="fill:rgb(10,11,10);fill-rule:nonzero;"/>
        </g>
        <g transform="matrix(1,0,0,1,606,1244)">
            <path d="M0,0C12.577,-0.846 21.593,3.626 31.064,11.776C33.066,13.666 35.012,15.595 36.938,17.563C37.627,18.261 38.316,18.96 39.027,19.68C60.973,42.271 60.973,42.271 61.563,54.063C59.833,66.167 59.833,66.167 56,70C45.993,68.995 34.488,55.003 28.5,47.75C26.993,45.839 25.493,43.922 24,42C23.209,41.024 22.417,40.048 21.602,39.043C12.825,28.038 4.722,15.895 -1,3C-0.67,2.01 -0.34,1.02 0,0Z" style="fill:rgb(24,108,65);fill-rule:nonzero;"/>
        </g>
    </g>
</svg>
